<svg xmlns="http://www.w3.org/2000/svg" width="18.753" height="18.753" viewBox="0 0 18.753 18.753">
  <g id="그룹_3986" data-name="그룹 3986" transform="translate(-1357 -157)">
    <path id="Icon_awesome-dollar-sign" data-name="Icon awesome-dollar-sign" d="M3.77,4.2,1.825,3.635a.531.531,0,0,1,.15-1.041H3.169a1.1,1.1,0,0,1,.616.189.281.281,0,0,0,.351-.036l.627-.612a.292.292,0,0,0-.032-.441,2.547,2.547,0,0,0-1.558-.54V.288A.289.289,0,0,0,2.884,0H2.308a.289.289,0,0,0-.288.288v.865H1.974A1.974,1.974,0,0,0,.011,3.307a2.062,2.062,0,0,0,1.51,1.74l1.846.54a.531.531,0,0,1-.15,1.041H2.023a1.1,1.1,0,0,1-.616-.189.281.281,0,0,0-.351.036l-.627.612a.292.292,0,0,0,.032.441,2.547,2.547,0,0,0,1.558.54v.865a.289.289,0,0,0,.288.288h.576a.289.289,0,0,0,.288-.288V8.067a2.035,2.035,0,0,0,1.9-1.31A1.978,1.978,0,0,0,3.77,4.2Z" transform="translate(1363.78 161.765)" fill="#f48c57"/>
    <g id="그룹_3985" data-name="그룹 3985" transform="translate(1357 157)">
      <path id="패스_1107" data-name="패스 1107" d="M487.164,19.989a9.377,9.377,0,1,0,9.377,9.377A9.377,9.377,0,0,0,487.164,19.989Zm0,17.5a8.126,8.126,0,1,1,8.126-8.126A8.135,8.135,0,0,1,487.164,37.492Z" transform="translate(-477.787 -19.989)" fill="#f48c57"/>
    </g>
  </g>
</svg>
