<svg xmlns="http://www.w3.org/2000/svg" width="81.532" height="69.035" viewBox="0 0 81.532 69.035">
  <g id="그룹_3984" data-name="그룹 3984" transform="translate(-666 -228)">
    <g id="그룹_3983" data-name="그룹 3983" transform="translate(-3 -7.684)">
      <path id="Icon_awesome-wallet" data-name="Icon awesome-wallet" d="M59.73,14.683H10.361a2.072,2.072,0,0,1,0-4.144H60.093a2.072,2.072,0,0,0,2.072-2.072A6.216,6.216,0,0,0,55.948,2.25H8.289A8.288,8.288,0,0,0,0,10.539V51.982A8.288,8.288,0,0,0,8.289,60.27H59.73a6.412,6.412,0,0,0,6.579-6.216V20.9A6.412,6.412,0,0,0,59.73,14.683ZM53.876,41.621a4.144,4.144,0,1,1,4.144-4.144A4.145,4.145,0,0,1,53.876,41.621Z" transform="translate(683.223 234.434)" fill="#fef3ee" stroke="#f48c57" stroke-width="2"/>
      <g id="타원_259" data-name="타원 259" transform="translate(669 269.719)" fill="#fef3ee" stroke="#f48c57" stroke-width="2">
        <circle cx="17.5" cy="17.5" r="17.5" stroke="none"/>
        <circle cx="17.5" cy="17.5" r="16.5" fill="none"/>
      </g>
      <path id="Icon_awesome-wifi" data-name="Icon awesome-wifi" d="M17.2,5.578a12.592,12.592,0,0,0-17.057,0A.43.43,0,0,0,.128,6.2l.927.92a.44.44,0,0,0,.607.01,10.391,10.391,0,0,1,14.009,0,.44.44,0,0,0,.607-.01l.927-.92a.431.431,0,0,0-.01-.622ZM8.667,10.917A1.733,1.733,0,1,0,10.4,12.65,1.733,1.733,0,0,0,8.667,10.917Zm5.489-2.264a8.314,8.314,0,0,0-10.978,0,.428.428,0,0,0-.015.627L4.1,10.2a.442.442,0,0,0,.6.022,6.1,6.1,0,0,1,7.949,0,.442.442,0,0,0,.6-.022l.933-.921A.428.428,0,0,0,14.156,8.653Z" transform="translate(677.667 279.07)" fill="#f48c57"/>
    </g>
  </g>
</svg>
