<?xml version="1.0" encoding="UTF-8"?><svg id="Layer_1" xmlns="http://www.w3.org/2000/svg" viewBox="0 0 36.32 39.82"><defs><style>.cls-1{fill:#002332;}</style></defs><path class="cls-1" d="M25.68,26.02l-10.12-6.7v-5.53c0-.27-.23-.5-.51-.5s-.51,.23-.51,.5v12.62c0,.27,.23,.5,.51,.5s.51-.23,.51-.5v-5.88l9.56,6.33c.23,.16,.55,.1,.7-.14v-.02c.16-.21,.1-.52-.14-.68Z"/><path class="cls-1" d="M19.12,17.8l.12,.17c.12,.17,.37,.23,.55,.12l5.9-3.92c.18-.12,.23-.37,.12-.54l-.12-.17c-.12-.17-.37-.23-.55-.12l-5.9,3.92c-.18,.12-.23,.35-.12,.54Z"/><path class="cls-1" d="M35.81,30.87c-.16,0-.29,.08-.39,.19-3.77,5.13-9.81,8.02-16.18,7.77C9.36,38.44,1.33,30.46,.96,20.66c-.2-5.2,1.68-10.12,5.32-13.86C9.91,3.05,14.78,.97,20.02,.97c6.06,0,11.81,2.91,15.4,7.79,.1,.12,.23,.19,.39,.19,.18,0,.35-.1,.43-.25,.08-.16,.06-.35-.04-.5C32.29,2.89,26.04-.16,19.45,0,14.29,.15,9.42,2.27,5.77,5.96,2.13,9.65,.08,14.48,0,19.63c-.08,5.36,1.97,10.43,5.77,14.25,3.79,3.83,8.87,5.94,14.27,5.94,6.35,0,12.41-3.05,16.18-8.17,.12-.16,.12-.35,.04-.5-.1-.17-.25-.27-.45-.27h0Z"/></svg>